<svg xmlns="http://www.w3.org/2000/svg" xmlns:xlink="http://www.w3.org/1999/xlink" id="Layer_1" width="237" height="20" data-name="Layer 1" viewBox="0 0 237 20"><defs><style>.cls-1{fill:#fff}.cls-2{fill:#2c2c32}.cls-3{fill:#24bfa5}.cls-4{mask:url(#mask)}.cls-5{fill:#009a7c}.cls-6{fill:#00b294}</style><mask id="mask" width="12.01" height="11.94" x="5.78" y="4.03" maskUnits="userSpaceOnUse"><g id="mask0"><path d="M14,15.75a.77.77,0,0,0,.85.15l2.48-1.19a.75.75,0,0,0,.42-.68V6a.75.75,0,0,0-.42-.68L14.89,4.1a.77.77,0,0,0-.85.15.44.44,0,0,1,.75.31V15.44A.44.44,0,0,1,14,15.75Z" class="cls-1"/><path d="M14.29,12.47,11.15,10l3.14-2.5V4.83a.38.38,0,0,0-.63-.28l-4.38,4L7.25,7a.51.51,0,0,0-.64,0L6,7.63a.5.5,0,0,0,0,.74l7.71,7.08a.38.38,0,0,0,.63-.28Z" class="cls-1"/><path d="M7.5,10.29,6,11.63a.5.5,0,0,0,0,.74l.66.6a.51.51,0,0,0,.64,0L9,11.69Z" class="cls-1"/></g></mask></defs><path d="M0,5A5,5,0,0,1,5,0H24V20H5a5,5,0,0,1-5-5Z" class="cls-2"/><path d="M24,0H230.67C234.16,0,237,2.24,237,5V15c0,2.76-2.84,5-6.33,5H24Z" class="cls-3"/><path d="M34,4.82c-2.43,0-4,1.71-4,4.43s1.49,4.44,4,4.44S37.89,12,37.89,9.25,36.38,4.82,34,4.82ZM34,6c1.6,0,2.6,1.27,2.6,3.27s-1,3.28-2.6,3.28-2.61-1.29-2.61-3.28S32.35,6,34,6Z" class="cls-1"/><path d="M42.84,7a2.24,2.24,0,0,0-2,1.16h-.09v-1H39.53V15.6h1.26V12.52h.1a2.06,2.06,0,0,0,2,1.07c1.61,0,2.64-1.28,2.64-3.29S44.46,7,42.84,7Zm-.36,5.5c-1,0-1.72-.85-1.72-2.21s.67-2.21,1.73-2.21,1.7.83,1.7,2.21S43.55,12.51,42.48,12.51Z" class="cls-1"/><path d="M51.19,11.78a1.54,1.54,0,0,1-1.52.8A1.72,1.72,0,0,1,48,10.69v0h4.51V10.2c0-2-1.08-3.2-2.85-3.2s-2.94,1.29-2.94,3.31,1.12,3.3,2.94,3.3a2.6,2.6,0,0,0,2.77-1.83ZM49.62,8a1.57,1.57,0,0,1,1.57,1.71H48A1.66,1.66,0,0,1,49.62,8Z" class="cls-1"/><path d="M54,13.48h1.26V9.75a1.48,1.48,0,0,1,1.52-1.66c.93,0,1.38.52,1.38,1.57v3.82h1.26V9.36A2.07,2.07,0,0,0,57.2,7a1.92,1.92,0,0,0-1.91,1.13H55.2v-1H54Z" class="cls-1"/><path d="M65.12,6a.79.79,0,1,0-.8-.79A.79.79,0,0,0,65.12,6Zm-.63,7.5h1.25V7.12H64.49Z" class="cls-1"/><path d="M67.59,13.48h1.26V9.75a1.49,1.49,0,0,1,1.53-1.66c.93,0,1.37.52,1.37,1.57v3.82H73V9.36A2.07,2.07,0,0,0,70.8,7a1.9,1.9,0,0,0-1.9,1.13h-.09v-1H67.59Z" class="cls-1"/><path d="M82,13.48,85,5h-1.4l-2.26,6.88h-.1L79,5H77.57l3,8.45Z" class="cls-1"/><path d="M87,6A.79.79,0,0,0,87,4.4.79.79,0,1,0,87,6Zm-.63,7.5h1.25V7.12H86.39Z" class="cls-1"/><path d="M89.35,8.9c0,.94.56,1.48,1.77,1.76l1.12.27c.64.15.94.41.94.81s-.56.88-1.35.88a1.28,1.28,0,0,1-1.38-.81H89.19c.11,1.11,1.1,1.8,2.61,1.8s2.65-.81,2.65-2c0-.93-.57-1.45-1.78-1.73l-1.06-.24c-.7-.17-1-.41-1-.81S91.12,8,91.83,8s1.17.31,1.29.79h1.2C94.2,7.67,93.26,7,91.83,7S89.35,7.79,89.35,8.9Z" class="cls-1"/><path d="M101.34,7.12h-1.26v3.73a1.46,1.46,0,0,1-1.57,1.65c-.93,0-1.34-.5-1.34-1.56V7.12H95.91v4.13a2.07,2.07,0,0,0,2.19,2.36A1.92,1.92,0,0,0,100,12.48h.1v1h1.21Z" class="cls-1"/><path d="M104.94,13.59a2.13,2.13,0,0,0,1.91-1h.1v.9h1.21V9.13c0-1.34-.9-2.13-2.5-2.13-1.45,0-2.48.69-2.6,1.77h1.21c.14-.47.63-.73,1.33-.73.86,0,1.31.39,1.31,1.09v.56l-1.73.1c-1.52.1-2.37.76-2.37,1.9A1.93,1.93,0,0,0,104.94,13.59Zm.32-1c-.69,0-1.19-.35-1.19-.94s.4-.89,1.28-1l1.56-.11v.55A1.52,1.52,0,0,1,105.26,12.58Z" class="cls-1"/><path d="M110,13.48h1.26V4.62H110Z" class="cls-1"/><path d="M116.2,11.23c.09,1.5,1.35,2.46,3.23,2.46s3.25-1,3.25-2.61c0-1.26-.71-2-2.45-2.38l-.93-.23c-1.1-.27-1.54-.62-1.54-1.23,0-.79.69-1.3,1.72-1.3a1.61,1.61,0,0,1,1.79,1.29h1.28c-.08-1.41-1.33-2.41-3-2.41s-3.07,1-3.07,2.49c0,1.23.69,2,2.22,2.32l1.09.27c1.12.27,1.61.68,1.61,1.34s-.77,1.33-1.82,1.33-1.92-.52-2-1.34Z" class="cls-1"/><path d="M124.71,5.51V7.14h-1v1h1v3.66c0,1.22.56,1.71,2,1.71a3.58,3.58,0,0,0,.68-.06v-1a3.53,3.53,0,0,1-.48,0c-.62,0-.9-.3-.9-1V8.15h1.38v-1H126V5.51Z" class="cls-1"/><path d="M134.21,7.12H133v3.73a1.47,1.47,0,0,1-1.58,1.65c-.93,0-1.34-.5-1.34-1.56V7.12h-1.26v4.13a2.07,2.07,0,0,0,2.2,2.36,1.91,1.91,0,0,0,1.92-1.13h.1v1h1.21Z" class="cls-1"/><path d="M138.38,13.59a2.23,2.23,0,0,0,2-1.11h.1v1h1.21V4.62h-1.26V8.13h-.1a2.1,2.1,0,0,0-2-1.12c-1.62,0-2.65,1.28-2.65,3.29S136.75,13.59,138.38,13.59Zm.35-5.5c1.06,0,1.72.85,1.72,2.21s-.66,2.21-1.72,2.21-1.7-.83-1.7-2.21S137.67,8.09,138.73,8.09Z" class="cls-1"/><path d="M144.23,6a.79.79,0,0,0,0-1.58.79.79,0,1,0,0,1.58Zm-.63,7.5h1.25V7.12H143.6Z" class="cls-1"/><path d="M149.4,13.61c1.87,0,3-1.25,3-3.31s-1.15-3.3-3-3.3-3,1.25-3,3.3S147.53,13.61,149.4,13.61Zm0-1.08c-1.09,0-1.71-.81-1.71-2.23s.62-2.24,1.71-2.24,1.71.82,1.71,2.24S150.49,12.53,149.4,12.53Z" class="cls-1"/><path d="M160.82,13.69A3.28,3.28,0,0,0,164.33,11H163a2.11,2.11,0,0,1-2.2,1.56c-1.52,0-2.47-1.25-2.47-3.26S159.3,6,160.82,6A2.16,2.16,0,0,1,163,7.71h1.31a3.36,3.36,0,0,0-3.51-2.89c-2.35,0-3.81,1.7-3.81,4.44S158.47,13.69,160.82,13.69Z" class="cls-1"/><path d="M168.61,13.61c1.86,0,3-1.25,3-3.31s-1.15-3.3-3-3.3-3,1.25-3,3.3S166.74,13.61,168.61,13.61Zm0-1.08c-1.1,0-1.71-.81-1.71-2.23s.61-2.24,1.71-2.24,1.71.82,1.71,2.24S169.7,12.53,168.61,12.53Z" class="cls-1"/><path d="M175.46,13.59a2.23,2.23,0,0,0,2-1.11h.1v1h1.2V4.62h-1.25V8.13h-.1a2.1,2.1,0,0,0-2-1.12c-1.61,0-2.64,1.28-2.64,3.29S173.84,13.59,175.46,13.59Zm.36-5.5c1.06,0,1.72.85,1.72,2.21s-.66,2.21-1.72,2.21-1.7-.83-1.7-2.21S174.76,8.09,175.82,8.09Z" class="cls-1"/><path d="M184.85,11.78a1.52,1.52,0,0,1-1.52.8c-1,0-1.65-.73-1.7-1.89v0h4.51V10.2c0-2-1.07-3.2-2.85-3.2s-2.94,1.29-2.94,3.31,1.12,3.3,3,3.3a2.58,2.58,0,0,0,2.76-1.83ZM183.29,8a1.57,1.57,0,0,1,1.57,1.71h-3.23A1.67,1.67,0,0,1,183.29,8Z" class="cls-1"/><path d="M190.84,13.6h1.26V4.74h-1.26Z" class="cls-1"/><path d="M193.38,13.6h1.26V9.87a1.48,1.48,0,0,1,1.52-1.66c.94,0,1.38.51,1.38,1.57V13.6h1.26V9.48a2.07,2.07,0,0,0-2.21-2.37,1.91,1.91,0,0,0-1.9,1.13h-.1v-1h-1.21Z" class="cls-1"/><path d="M200.25,8.89c0,.95.56,1.49,1.77,1.77l1.12.26c.63.15.93.41.93.81s-.55.89-1.34.89a1.31,1.31,0,0,1-1.39-.81h-1.26c.11,1.1,1.1,1.79,2.62,1.79s2.64-.8,2.64-2c0-.92-.56-1.44-1.78-1.73l-1.06-.24c-.69-.17-1-.41-1-.8S202,8,202.73,8s1.17.32,1.28.79h1.21C205.1,7.66,204.16,7,202.73,7S200.25,7.79,200.25,8.89Z" class="cls-1"/><path d="M207.42,6.1a.8.8,0,1,0-.79-.79A.79.79,0,0,0,207.42,6.1Zm-.62,7.5h1.25V7.24H206.8Z" class="cls-1"/><path d="M212.15,13.6a2.25,2.25,0,0,0,2-1.11h.09v1h1.21V4.63H214.2V8.14h-.09a2.12,2.12,0,0,0-2-1.12c-1.61,0-2.65,1.28-2.65,3.29S210.53,13.6,212.15,13.6Zm.36-5.5c1.05,0,1.72.85,1.72,2.21s-.66,2.21-1.72,2.21-1.71-.82-1.71-2.21S211.45,8.1,212.51,8.1Z" class="cls-1"/><path d="M221.24,11.77a1.5,1.5,0,0,1-1.51.8,1.71,1.71,0,0,1-1.7-1.88v-.06h4.5V10.2c0-2-1.07-3.21-2.85-3.21s-2.94,1.3-2.94,3.32,1.12,3.29,2.95,3.29a2.59,2.59,0,0,0,2.77-1.83ZM219.68,8a1.57,1.57,0,0,1,1.57,1.7H218A1.66,1.66,0,0,1,219.68,8Z" class="cls-1"/><path d="M228,8.92c0,.94.56,1.48,1.77,1.76l1.12.26c.63.16.93.41.93.81s-.55.89-1.34.89a1.3,1.3,0,0,1-1.39-.81h-1.26c.11,1.11,1.1,1.79,2.62,1.79s2.64-.8,2.64-2c0-.92-.56-1.44-1.78-1.72l-1.06-.25c-.69-.16-1-.41-1-.8S229.79,8,230.5,8s1.17.31,1.28.78H233C232.87,7.68,231.93,7,230.5,7S228,7.81,228,8.92Z" class="cls-1"/><path d="M227.15,8.53a.92.92,0,0,0-.65-.21,1.07,1.07,0,0,0-.92.59,2.94,2.94,0,0,0-.37,1.6v3.1H224V7.13h1.25V8.46h0a2.33,2.33,0,0,1,.56-1.06,1.13,1.13,0,0,1,.84-.38.93.93,0,0,1,.52.12Z" class="cls-1"/><g class="cls-4"><path d="M13.66,4.55a.38.38,0,0,1,.63.28v2.7l-3.58,2.84L8.86,9Z" class="cls-5"/><path d="M7.5,10.29,6,11.63a.5.5,0,0,0,0,.74l.66.6a.51.51,0,0,0,.64,0L9,11.69Z" class="cls-5"/><path d="M14.29,12.47,7.25,7a.51.51,0,0,0-.64,0L6,7.63a.5.5,0,0,0,0,.74l7.71,7.08a.38.38,0,0,0,.63-.28Z" class="cls-6"/><path d="M14.89,15.9a.77.77,0,0,1-.85-.15.44.44,0,0,0,.75-.31V4.56A.44.44,0,0,0,14,4.25a.77.77,0,0,1,.85-.15l2.48,1.19a.75.75,0,0,1,.42.68V14a.75.75,0,0,1-.42.68Z" class="cls-3"/></g></svg>